<?xml version="1.0" encoding="UTF-8" standalone="no"?>
<svg
   viewBox="0 0 512 512"
   fill-rule="evenodd"
   clip-rule="evenodd"
   stroke-linejoin="round"
   stroke-miterlimit="2"
   version="1.1"
   id="svg4"
   sodipodi:docname="unity (3).svg"
   inkscape:version="1.3.2 (091e20e, 2023-11-25, custom)"
   xmlns:inkscape="http://www.inkscape.org/namespaces/inkscape"
   xmlns:sodipodi="http://sodipodi.sourceforge.net/DTD/sodipodi-0.dtd"
   xmlns="http://www.w3.org/2000/svg"
   xmlns:svg="http://www.w3.org/2000/svg">
  <defs
     id="defs4" />
  <sodipodi:namedview
     id="namedview4"
     pagecolor="#505050"
     bordercolor="#ffffff"
     borderopacity="1"
     inkscape:showpageshadow="0"
     inkscape:pageopacity="0"
     inkscape:pagecheckerboard="1"
     inkscape:deskcolor="#505050"
     showgrid="false"
     inkscape:zoom="2.3769531"
     inkscape:cx="255.78965"
     inkscape:cy="256"
     inkscape:window-width="2560"
     inkscape:window-height="1494"
     inkscape:window-x="-11"
     inkscape:window-y="-11"
     inkscape:window-maximized="1"
     inkscape:current-layer="svg4" />
  <path
     d="M482.333 358.4V119.467L275.399 0v91.733l81.068 46.934c3.2 2.132 3.2 6.4 0 7.467l-96 55.467c-3.2 2.132-6.4 1.066-8.534 0l-96-55.467c-3.2-1.067-3.2-6.4 0-7.467L237 91.733V0L29 119.467V358.4v-1.067 1.067l78.933-45.867v-93.867c0-3.2 4.267-5.332 6.4-4.266l96 55.467c3.2 2.133 4.267 4.267 4.267 7.467v110.932c0 3.2-4.267 5.335-6.4 4.267L127.134 345.6 48.2 391.467 255.133 512l206.934-119.467-78.934-45.867-81.066 46.935c-3.2 2.132-6.4 0-6.4-4.268V278.4c0-3.2 2.132-6.4 4.266-7.467l96.001-55.467c3.199-2.132 6.399 0 6.399 4.267V313.6l80 44.8z"
     fill="#4c4c4c"
     fill-rule="nonzero"
     id="path1" />
  <path
     d="M255.133 512l206.934-119.467-78.934-45.867-81.066 46.935c-3.2 2.132-6.4 0-6.4-4.268V278.4c0-3.2 2.132-6.4 4.266-7.467l96.001-55.467c3.199-2.132 6.399 0 6.399 4.267V313.6l78.933 45.867v-240l-226.133 131.2V512z"
     fill-rule="nonzero"
     id="path2"
     style="stroke-width:1.0015748;stroke-dasharray:none;fill:#282828;fill-opacity:1" />
  <path
     d="M275.4 0v91.733l81.067 46.934c3.2 2.132 3.2 6.4 0 7.467l-96 55.467c-3.2 2.132-6.4 1.066-8.534 0l-96-55.467c-3.2-1.067-3.2-6.4 0-7.467L237 91.733V0L29 119.467l226.133 131.2 226.133-131.2L275.4 0z"
     fill="gray"
     fill-rule="nonzero"
     id="path3"
     style="fill:#282828;fill-opacity:1" />
  <path
     d="M209.267 393.6l-81.068-46.934-78.933 45.867L256.2 512V250.667L29 119.467V358.4v-1.067 1.067l78.933-45.867v-93.867c0-3.2 4.267-5.332 6.4-4.266l96 55.467c3.2 2.133 4.267 4.267 4.267 7.467v110.932c1.067 4.267-2.133 7.467-5.333 5.335z"
     fill="#4c4c4c"
     fill-rule="nonzero"
     id="path4"
     style="stroke-width:1.0015748;stroke-dasharray:none;fill:#282828;fill-opacity:1" />
</svg>
