<?xml version="1.0" encoding="UTF-8" standalone="no"?>
<svg
   width="2433"
   height="2500"
   viewBox="0 0 256 263"
   preserveAspectRatio="xMinYMin meet"
   version="1.1"
   id="svg1"
   sodipodi:docname="unity.svg"
   inkscape:version="1.3.2 (091e20e, 2023-11-25, custom)"
   xmlns:inkscape="http://www.inkscape.org/namespaces/inkscape"
   xmlns:sodipodi="http://sodipodi.sourceforge.net/DTD/sodipodi-0.dtd"
   xmlns="http://www.w3.org/2000/svg"
   xmlns:svg="http://www.w3.org/2000/svg">
  <defs
     id="defs1" />
  <sodipodi:namedview
     id="namedview1"
     pagecolor="#505050"
     bordercolor="#ffffff"
     borderopacity="1"
     inkscape:showpageshadow="0"
     inkscape:pageopacity="0"
     inkscape:pagecheckerboard="1"
     inkscape:deskcolor="#505050"
     showgrid="false"
     inkscape:zoom="0.2434"
     inkscape:cx="345.11093"
     inkscape:cy="1902.2186"
     inkscape:window-width="2560"
     inkscape:window-height="1494"
     inkscape:window-x="-11"
     inkscape:window-y="-11"
     inkscape:window-maximized="1"
     inkscape:current-layer="svg1" />
  <path
     d="M166.872 131.237l45.91-79.275 22.184 79.275-22.185 79.256-45.909-79.256zm-22.376 12.874l45.916 79.262-79.966-20.486-57.77-58.776h91.82zm45.906-105.033l-45.906 79.275h-91.82l57.77-58.78 79.956-20.495zm65.539 65.18L227.933.06l-104.54 27.925-15.475 27.207-31.401-.225L0 131.244l76.517 76.259h.003l31.388-.232 15.497 27.207 104.528 27.92L255.94 158.22l-15.906-26.982 15.906-26.978z"
     fill="#222C37"
     id="path1" />
  <path
     style="fill:#333333;stroke:#409cff;stroke-width:7.76403;stroke-opacity:0"
     d="m 1666.2527,2359.4953 -492.7448,-131.8509 -73.196,-128.7286 c -40.2578,-70.8008 -74.1204,-129 -75.2503,-129.3317 -1.1298,-0.3317 -68.14911,-0.1408 -148.93177,0.4241 l -146.87757,1.0271 -52.38291,-51.3387 C 648.05875,1891.4603 484.341,1728.4903 313.05216,1557.5412 L 1.6178652,1246.7245 364.07615,885.79035 726.53445,524.8562 h 149.99117 149.99118 l 72.6078,-127.36236 c 39.9343,-70.0493 72.8985,-128.09487 73.2538,-128.99014 0.663,-1.67067 991.8309,-267.0580283 993.0086,-265.8802335 0.3597,0.3595814 60.3435,222.6976535 133.2975,494.0845835 111.7775,415.80933 132.2717,494.12603 130.2785,497.85015 -1.3007,2.43065 -35.0741,59.89 -75.0519,127.6874 -39.9777,67.7975 -72.6868,124.0617 -72.6868,125.0316 0,0.9699 33.7981,59.093 75.107,129.1624 l 75.1069,127.399 -131.7219,490.3773 c -72.447,269.7075 -132.1908,491.9951 -132.7638,493.9723 -0.5731,1.9772 -2.5975,3.4967 -4.4985,3.3765 -1.901,-0.1202 -225.1916,-59.5513 -496.2013,-132.0694 z m 140.5822,-243.1231 c -2.2296,-4.2368 -100.5034,-174.0961 -218.3862,-377.4651 l -214.3323,-369.7617 -437.12827,-0.5183 c -250.91905,-0.2975 -436.83589,0.2514 -436.44191,1.2886 1.80809,4.7602 549.10278,559.1726 552.95568,560.147 2.4351,0.6159 173.1312,44.4366 379.3247,97.3793 206.1935,52.9428 375.6094,96.3437 376.4797,96.4465 0.8704,0.1029 -0.2418,-3.2794 -2.4714,-7.5163 z m 322.2259,-493.8414 105.006,-375.2097 -105.035,-375.61204 c -57.7691,-206.58667 -105.6271,-376.23517 -106.3512,-376.99669 -0.7241,-0.76153 -99.5282,168.25371 -219.5646,375.58942 l -218.248,376.97401 218.2144,376.7038 c 120.0179,207.1871 218.835,376.0416 219.5936,375.2323 0.7585,-0.8094 48.6317,-170.3159 106.3848,-376.6811 z M 1592.3715,748.6909 c 134.8954,-233.1083 216.9426,-376.87496 215.0813,-376.87496 -1.6552,0 -172.8238,43.50265 -380.3749,96.67258 l -377.3655,96.67255 -30.0198,30.17626 C 981.09096,634.14004 513.45419,1110.5246 505.47023,1119.1789 l -6.03346,6.5401 437.42212,-0.077 437.42211,-0.077 z"
     id="path2"
     transform="scale(0.10521989)" />
</svg>
